<mxfile host="app.diagrams.net" modified="2023-10-16T13:47:48.159Z" agent="Mozilla/5.0 (X11; Linux x86_64) AppleWebKit/537.36 (KHTML, like Gecko) Chrome/117.0.0.0 Safari/537.36" etag="Y8AXk_R11XIy4et_0Fzb" version="22.0.4" type="device">
  <diagram name="Page-1" id="Sxi0MOCAnwCKwVZOTPyY">
    <mxGraphModel dx="2261" dy="750" grid="1" gridSize="10" guides="1" tooltips="1" connect="1" arrows="1" fold="1" page="1" pageScale="1" pageWidth="827" pageHeight="1169" math="0" shadow="0">
      <root>
        <mxCell id="0" />
        <mxCell id="1" parent="0" />
        <mxCell id="C6zCgAjMdXjkE-Nuq4Kv-14" value="" style="rounded=0;whiteSpace=wrap;html=1;" vertex="1" parent="1">
          <mxGeometry x="40" y="255" width="510" height="235" as="geometry" />
        </mxCell>
        <mxCell id="C6zCgAjMdXjkE-Nuq4Kv-12" value="" style="rounded=0;whiteSpace=wrap;html=1;" vertex="1" parent="1">
          <mxGeometry x="270" y="40" width="480" height="190" as="geometry" />
        </mxCell>
        <mxCell id="C6zCgAjMdXjkE-Nuq4Kv-1" value="/" style="rounded=0;whiteSpace=wrap;html=1;" vertex="1" parent="1">
          <mxGeometry x="50" y="270" width="120" height="60" as="geometry" />
        </mxCell>
        <mxCell id="C6zCgAjMdXjkE-Nuq4Kv-2" value="/login" style="rounded=0;whiteSpace=wrap;html=1;" vertex="1" parent="1">
          <mxGeometry x="310" y="270" width="120" height="60" as="geometry" />
        </mxCell>
        <mxCell id="C6zCgAjMdXjkE-Nuq4Kv-4" value="" style="endArrow=classic;startArrow=classic;html=1;rounded=0;entryX=0;entryY=0.5;entryDx=0;entryDy=0;exitX=1;exitY=0.5;exitDx=0;exitDy=0;" edge="1" parent="1" source="C6zCgAjMdXjkE-Nuq4Kv-1" target="C6zCgAjMdXjkE-Nuq4Kv-2">
          <mxGeometry width="50" height="50" relative="1" as="geometry">
            <mxPoint x="390" y="410" as="sourcePoint" />
            <mxPoint x="440" y="360" as="targetPoint" />
          </mxGeometry>
        </mxCell>
        <mxCell id="C6zCgAjMdXjkE-Nuq4Kv-5" value="/about_us" style="rounded=0;whiteSpace=wrap;html=1;" vertex="1" parent="1">
          <mxGeometry x="310" y="370" width="120" height="60" as="geometry" />
        </mxCell>
        <mxCell id="C6zCgAjMdXjkE-Nuq4Kv-8" value="" style="endArrow=classic;startArrow=classic;html=1;rounded=0;exitX=0.5;exitY=1;exitDx=0;exitDy=0;entryX=0;entryY=0.5;entryDx=0;entryDy=0;" edge="1" parent="1" source="C6zCgAjMdXjkE-Nuq4Kv-1" target="C6zCgAjMdXjkE-Nuq4Kv-5">
          <mxGeometry width="50" height="50" relative="1" as="geometry">
            <mxPoint x="390" y="410" as="sourcePoint" />
            <mxPoint x="440" y="360" as="targetPoint" />
            <Array as="points">
              <mxPoint x="110" y="400" />
            </Array>
          </mxGeometry>
        </mxCell>
        <mxCell id="C6zCgAjMdXjkE-Nuq4Kv-21" style="edgeStyle=orthogonalEdgeStyle;rounded=0;orthogonalLoop=1;jettySize=auto;html=1;entryX=0;entryY=0.5;entryDx=0;entryDy=0;" edge="1" parent="1" source="C6zCgAjMdXjkE-Nuq4Kv-9" target="C6zCgAjMdXjkE-Nuq4Kv-16">
          <mxGeometry relative="1" as="geometry" />
        </mxCell>
        <mxCell id="C6zCgAjMdXjkE-Nuq4Kv-22" style="edgeStyle=orthogonalEdgeStyle;rounded=0;orthogonalLoop=1;jettySize=auto;html=1;exitX=1;exitY=0.5;exitDx=0;exitDy=0;" edge="1" parent="1" source="C6zCgAjMdXjkE-Nuq4Kv-9" target="C6zCgAjMdXjkE-Nuq4Kv-17">
          <mxGeometry relative="1" as="geometry" />
        </mxCell>
        <mxCell id="C6zCgAjMdXjkE-Nuq4Kv-23" style="edgeStyle=orthogonalEdgeStyle;rounded=0;orthogonalLoop=1;jettySize=auto;html=1;exitX=1;exitY=0.5;exitDx=0;exitDy=0;" edge="1" parent="1" source="C6zCgAjMdXjkE-Nuq4Kv-9" target="C6zCgAjMdXjkE-Nuq4Kv-18">
          <mxGeometry relative="1" as="geometry" />
        </mxCell>
        <mxCell id="C6zCgAjMdXjkE-Nuq4Kv-9" value="/api" style="rounded=0;whiteSpace=wrap;html=1;" vertex="1" parent="1">
          <mxGeometry x="310" y="100" width="120" height="60" as="geometry" />
        </mxCell>
        <mxCell id="C6zCgAjMdXjkE-Nuq4Kv-10" value="" style="endArrow=classic;html=1;rounded=0;exitX=0.5;exitY=0;exitDx=0;exitDy=0;entryX=0;entryY=0.5;entryDx=0;entryDy=0;" edge="1" parent="1" source="C6zCgAjMdXjkE-Nuq4Kv-1" target="C6zCgAjMdXjkE-Nuq4Kv-9">
          <mxGeometry width="50" height="50" relative="1" as="geometry">
            <mxPoint x="390" y="410" as="sourcePoint" />
            <mxPoint x="440" y="360" as="targetPoint" />
            <Array as="points">
              <mxPoint x="110" y="130" />
            </Array>
          </mxGeometry>
        </mxCell>
        <mxCell id="C6zCgAjMdXjkE-Nuq4Kv-13" value="Flask Backend" style="text;html=1;strokeColor=none;fillColor=none;align=center;verticalAlign=middle;whiteSpace=wrap;rounded=0;" vertex="1" parent="1">
          <mxGeometry x="280" y="190" width="60" height="30" as="geometry" />
        </mxCell>
        <mxCell id="C6zCgAjMdXjkE-Nuq4Kv-15" value="React Frontend" style="text;html=1;strokeColor=none;fillColor=none;align=center;verticalAlign=middle;whiteSpace=wrap;rounded=0;" vertex="1" parent="1">
          <mxGeometry x="50" y="450" width="60" height="30" as="geometry" />
        </mxCell>
        <mxCell id="C6zCgAjMdXjkE-Nuq4Kv-16" value="/api/..." style="rounded=0;whiteSpace=wrap;html=1;" vertex="1" parent="1">
          <mxGeometry x="520" y="60" width="120" height="60" as="geometry" />
        </mxCell>
        <mxCell id="C6zCgAjMdXjkE-Nuq4Kv-17" value="/api/..." style="rounded=0;whiteSpace=wrap;html=1;" vertex="1" parent="1">
          <mxGeometry x="550" y="100" width="120" height="60" as="geometry" />
        </mxCell>
        <mxCell id="C6zCgAjMdXjkE-Nuq4Kv-18" value="/api/..." style="rounded=0;whiteSpace=wrap;html=1;" vertex="1" parent="1">
          <mxGeometry x="590" y="140" width="120" height="60" as="geometry" />
        </mxCell>
        <mxCell id="C6zCgAjMdXjkE-Nuq4Kv-25" style="edgeStyle=orthogonalEdgeStyle;rounded=0;orthogonalLoop=1;jettySize=auto;html=1;entryX=0;entryY=0.5;entryDx=0;entryDy=0;" edge="1" parent="1" source="C6zCgAjMdXjkE-Nuq4Kv-24" target="C6zCgAjMdXjkE-Nuq4Kv-1">
          <mxGeometry relative="1" as="geometry" />
        </mxCell>
        <mxCell id="C6zCgAjMdXjkE-Nuq4Kv-24" value="Browser" style="rounded=0;whiteSpace=wrap;html=1;" vertex="1" parent="1">
          <mxGeometry x="-160" y="270" width="120" height="60" as="geometry" />
        </mxCell>
      </root>
    </mxGraphModel>
  </diagram>
</mxfile>
